<svg width="304" height="34" viewBox="0 0 304 34" version="1.1" xmlns="http://www.w3.org/2000/svg" xmlns:xlink="http://www.w3.org/1999/xlink">
<title>Access All Areas Logo</title>
<g id="Canvas" transform="translate(-3812 4061)">
<g id="AAA_LOGOTYPE_CMYK_2018_White">
<g id="Group">
<g id="Vector">
<use xlink:href="#path0_fill" transform="translate(3812 -4061)" fill="#FFFFFF"/>
</g>
<g id="Vector">
<use xlink:href="#path1_fill" transform="translate(3839.63 -4050.44)" fill="#FFFFFF"/>
</g>
<g id="Vector">
<use xlink:href="#path2_fill" transform="translate(3859.61 -4050.44)" fill="#FFFFFF"/>
</g>
<g id="Vector">
<use xlink:href="#path3_fill" transform="translate(3879.58 -4050.44)" fill="#FFFFFF"/>
</g>
<g id="Vector">
<use xlink:href="#path4_fill" transform="translate(3901.12 -4050.44)" fill="#FFFFFF"/>
</g>
<g id="Vector">
<use xlink:href="#path5_fill" transform="translate(3919.26 -4050.44)" fill="#FFFFFF"/>
</g>
<g id="Vector">
<use xlink:href="#path6_fill" transform="translate(3946.84 -4061)" fill="#FFFFFF"/>
</g>
<g id="Vector">
<use xlink:href="#path7_fill" transform="translate(3976.04 -4061)" fill="#FFFFFF"/>
</g>
<g id="Vector">
<use xlink:href="#path8_fill" transform="translate(3988.64 -4061)" fill="#FFFFFF"/>
</g>
<g id="Vector">
<use xlink:href="#path9_fill" transform="translate(4010.76 -4061)" fill="#FFFFFF"/>
</g>
<g id="Vector">
<use xlink:href="#path10_fill" transform="translate(4040.16 -4050.48)" fill="#FFFFFF"/>
</g>
<g id="Vector">
<use xlink:href="#path11_fill" transform="translate(4056.28 -4050.44)" fill="#FFFFFF"/>
</g>
<g id="Vector">
<use xlink:href="#path12_fill" transform="translate(4077.43 -4050.44)" fill="#FFFFFF"/>
</g>
<g id="Vector">
<use xlink:href="#path13_fill" transform="translate(4099.77 -4050.44)" fill="#FFFFFF"/>
</g>
</g>
</g>
</g>
<defs>
<path id="path0_fill" d="M -2.43151e-07 33.4211L -2.43151e-07 31.3268C 2.59256 31.1035 3.21846 29.0984 3.57612 27.9396L 10.1914 5.43647C 10.415 4.67881 10.5044 2.40626 7.1965 2.09428L 7.1965 -1.34665e-07L 16.1361 -1.34665e-07L 24.3609 27.9391C 24.7632 29.3653 25.7016 31.103 28.2942 31.3263L 28.2942 33.4206L 15.6001 33.4206L 15.6001 31.3263C 18.9527 31.0144 19.0416 29.3208 18.595 27.9391L 17.2542 23.394L 7.8671 23.394L 6.52633 27.9391C 6.16868 29.187 6.16868 31.0144 9.52126 31.3263L 9.52126 33.4206L -2.43151e-07 33.4206L -2.43151e-07 33.4211ZM 12.5604 7.44161L 8.67183 20.6317L 16.4495 20.6317L 12.5604 7.44161Z"/>
<path id="path1_fill" d="M 10.4154 -7.27194e-07C 15.1535 -7.27194e-07 18.1484 3.07478 18.1484 6.90679C 18.1484 9.26847 16.8523 10.7838 14.9299 10.7838C 13.3209 10.7838 12.0244 9.49132 12.0244 7.88729C 12.0244 6.28327 13.2762 4.99079 14.9299 4.99079C 14.3934 3.52003 12.6503 2.6291 10.8173 2.6291C 7.10753 2.6291 5.58749 6.99592 5.58749 11.1849C 5.58749 17.2899 8.22476 20.2306 11.2644 20.2306C 14.1699 20.2306 15.6001 18.7602 16.8966 16.7105L 19.0421 18.6711C 17.6119 21.1215 14.4828 23.394 10.5491 23.394C 4.15731 23.394 -1.53996e-06 17.9134 -1.53996e-06 11.4519C 0.000441103 5.07992 3.62127 -7.27194e-07 10.4154 -7.27194e-07Z"/>
<path id="path2_fill" d="M 10.4154 -7.27194e-07C 15.1535 -7.27194e-07 18.1484 3.07478 18.1484 6.90679C 18.1484 9.26847 16.8523 10.7838 14.9299 10.7838C 13.3209 10.7838 12.0244 9.49132 12.0244 7.88729C 12.0244 6.28327 13.2762 4.99079 14.9299 4.99079C 14.3934 3.52003 12.6503 2.6291 10.8173 2.6291C 7.10753 2.6291 5.58749 6.99592 5.58749 11.1849C 5.58749 17.2899 8.22476 20.2306 11.2644 20.2306C 14.1699 20.2306 15.6001 18.7602 16.8966 16.7105L 19.0421 18.6711C 17.6119 21.1215 14.4828 23.394 10.5491 23.394C 4.15731 23.394 -1.78311e-06 17.9134 -1.78311e-06 11.4519C 0.00044086 5.07992 3.62082 -7.27194e-07 10.4154 -7.27194e-07Z"/>
<path id="path3_fill" d="M 19.5339 18.6715C 17.5672 21.5676 14.0805 23.3945 10.4597 23.3945C 4.20157 23.3945 1.35084e-06 17.9139 1.35084e-06 11.3186C 1.35084e-06 5.07992 3.79965 -4.84796e-07 10.2808 -4.84796e-07C 17.2091 -4.84796e-07 20.5617 5.74845 19.8464 13.3683L 5.6322 13.3683C 5.85573 18.0917 8.22476 20.3201 11.2644 20.3201C 13.4993 20.3201 16.0024 19.0272 17.2989 16.7105L 19.5339 18.6715ZM 10.102 2.62954C 7.55415 2.62954 5.76632 5.25864 5.6322 10.606L 14.5276 10.606C 14.4828 5.34777 12.6946 2.62954 10.102 2.62954Z"/>
<path id="path4_fill" d="M 14.7055 0.57895L 14.7055 7.3966L 12.6494 7.3966L 12.6494 6.95091C 12.6494 5.12405 10.9063 2.62866 8.31372 2.62866C 6.66001 2.62866 5.49763 3.78699 5.49763 5.12405C 5.49763 5.97041 5.98941 6.90635 7.15135 7.61944L 12.3365 10.7388C 15.1526 12.432 16.2255 14.7936 16.2255 17.2445C 16.2255 20.2301 14.5271 23.4386 9.25257 23.4386C 6.70472 23.4386 5.40821 22.7696 4.24627 22.369C 3.70979 22.1907 3.30743 22.102 2.94978 22.102C 2.1455 22.102 1.87725 22.5918 1.87725 22.8596L 2.48555e-06 22.8596L 2.48555e-06 15.2843L 2.01137 15.2843L 2.01137 15.9529C 2.01137 18.0917 4.33569 20.8099 7.8224 20.8099C 10.0573 20.8099 11.1303 19.3842 11.1303 17.9139C 11.1303 16.7997 10.5491 15.6855 9.47655 15.0174L 5.31925 12.4328C 1.96667 10.3386 0.938843 8.37799 0.938843 5.97129C 0.938843 1.33706 4.69335 -9.69592e-07 6.88399 -9.69592e-07C 9.52126 -9.69592e-07 10.9067 1.24792 12.0244 1.24792C 12.5609 1.24792 12.7844 1.02508 12.8291 0.579391L 14.7055 0.579391L 14.7055 0.57895Z"/>
<path id="path5_fill" d="M 14.7055 0.57895L 14.7055 7.3966L 12.6494 7.3966L 12.6494 6.95091C 12.6494 5.12405 10.9063 2.62866 8.31373 2.62866C 6.66001 2.62866 5.49763 3.78699 5.49763 5.12405C 5.49763 5.97041 5.98941 6.90635 7.15135 7.61944L 12.3365 10.7388C 15.1526 12.432 16.2255 14.7936 16.2255 17.2445C 16.2255 20.2301 14.5271 23.4386 9.25258 23.4386C 6.70472 23.4386 5.40822 22.7696 4.24628 22.369C 3.7098 22.1907 3.30743 22.102 2.94977 22.102C 2.14549 22.102 1.87725 22.5918 1.87725 22.8596L -3.99849e-06 22.8596L -3.99849e-06 15.2843L 2.01137 15.2843L 2.01137 15.9529C 2.01137 18.0917 4.33569 20.8099 7.82239 20.8099C 10.0573 20.8099 11.1303 19.3842 11.1303 17.9139C 11.1303 16.7997 10.5491 15.6855 9.47655 15.0174L 5.31924 12.4328C 1.9671 10.3386 0.938844 8.37799 0.938844 5.97129C 0.938844 1.33706 4.69335 -9.69592e-07 6.88399 -9.69592e-07C 9.52126 -9.69592e-07 10.9067 1.24792 12.0244 1.24792C 12.5609 1.24792 12.7844 1.02508 12.8291 0.579391L 14.7055 0.579391L 14.7055 0.57895Z"/>
<path id="path6_fill" d="M 4.10656e-06 33.4211L 4.10656e-06 31.3268C 2.59257 31.1035 3.21846 29.0984 3.57611 27.9396L 10.1914 5.43647C 10.4154 4.67881 10.5044 2.40626 7.19695 2.09428L 7.19695 -1.34665e-07L 16.137 -1.34665e-07L 24.3613 27.9391C 24.7637 29.3653 25.7025 31.103 28.2951 31.3263L 28.2951 33.4206L 15.6005 33.4206L 15.6005 31.3263C 18.9527 31.0144 19.0421 29.3208 18.5954 27.9391L 17.2547 23.394L 7.86799 23.394L 6.52678 27.9391C 6.16912 29.187 6.16912 31.0144 9.5217 31.3263L 9.5217 33.4206L 4.10656e-06 33.4206L 4.10656e-06 33.4211ZM 12.5604 7.44161L 8.67183 20.6317L 16.4495 20.6317L 12.5604 7.44161Z"/>
<path id="path7_fill" d="M 8.31417 -1.34665e-07L 8.31417 27.9391C 8.31417 28.6968 8.35888 31.1922 11.3091 31.3263L 11.3091 33.4206L -1.62101e-06 33.4206L -1.62101e-06 31.3263C 2.99492 31.1922 2.99492 28.6968 2.99492 27.9391L 2.99492 4.85708C 2.99492 3.87657 2.593 2.36169 -1.62101e-06 2.09428L -1.62101e-06 -1.34665e-07L 8.31417 -1.34665e-07L 8.31417 -1.34665e-07Z"/>
<path id="path8_fill" d="M 8.31418 -1.34665e-07L 8.31418 27.9391C 8.31418 28.6968 8.35888 31.1922 11.3091 31.3263L 11.3091 33.4206L -3.24202e-06 33.4206L -3.24202e-06 31.3263C 2.99492 31.1922 2.99493 28.6968 2.99493 27.9391L 2.99493 4.85708C 2.99493 3.87657 2.593 2.36169 -3.24202e-06 2.09428L -3.24202e-06 -1.34665e-07L 8.31418 -1.34665e-07L 8.31418 -1.34665e-07Z"/>
<path id="path9_fill" d="M 4.75496e-06 33.4211L 4.75496e-06 31.3268C 2.59257 31.1035 3.21846 29.0984 3.57611 27.9396L 10.1914 5.43647C 10.415 4.67881 10.5044 2.40626 7.19605 2.09428L 7.19605 -1.34665e-07L 16.1361 -1.34665e-07L 24.3604 27.9391C 24.7628 29.3653 25.7016 31.103 28.2942 31.3263L 28.2942 33.4206L 15.5996 33.4206L 15.5996 31.3263C 18.9518 31.0144 19.0412 29.3208 18.5946 27.9391L 17.2538 23.394L 7.86754 23.394L 6.52633 27.9391C 6.16868 29.187 6.16868 31.0144 9.5217 31.3263L 9.5217 33.4206L 4.75496e-06 33.4206L 4.75496e-06 33.4211ZM 12.5604 7.44161L 8.67183 20.6317L 16.4495 20.6317L 12.5604 7.44161Z"/>
<path id="path10_fill" d="M 16.7178 1.11421L 14.2593 5.48104C 10.9961 3.43133 8.31418 5.3919 8.31418 10.2044L 8.31418 17.6465C 8.31418 19.3842 9.25258 20.6762 11.3091 20.8104L 11.3091 22.9047L 3.45815e-06 22.9047L 3.45815e-06 20.8104C 2.05652 20.6762 2.99492 19.3842 2.99492 17.6465L 2.99492 5.88215C 2.99492 4.14443 2.05652 2.85194 3.45815e-06 2.71823L 3.45815e-06 0.623959L 7.24121 0.623959L 7.86711 4.85708C 8.76125 1.7823 11.6663 1.88532e-07 13.7671 1.88532e-07C 15.0636 1.88532e-07 16.0472 0.445685 16.7178 1.11421Z"/>
<path id="path11_fill" d="M 19.5339 18.6715C 17.5672 21.5676 14.0805 23.3945 10.4597 23.3945C 4.20157 23.3945 -2.16134e-06 17.9139 -2.16134e-06 11.3186C -2.16134e-06 5.07992 3.79964 -4.84796e-07 10.2813 -4.84796e-07C 17.2095 -4.84796e-07 20.5621 5.74845 19.8468 13.3683L 5.63219 13.3683C 5.85573 18.0917 8.22474 20.3201 11.2648 20.3201C 13.4997 20.3201 16.0029 19.0272 17.2989 16.7105L 19.5339 18.6715ZM 10.102 2.62954C 7.55416 2.62954 5.76632 5.25864 5.63176 10.606L 14.5271 10.606C 14.4829 5.34777 12.695 2.62954 10.102 2.62954Z"/>
<path id="path12_fill" d="M 17.835 17.3782C 17.835 19.0268 18.7738 20.4084 20.8303 20.7654L 20.8303 22.8596L 13.857 22.8596L 13.2311 20.6312C 12.0691 22.4585 10.3702 23.394 7.73298 23.394C 2.63727 23.394 1.08067e-05 19.9181 1.08067e-05 16.2648C 1.08067e-05 13.769 1.20708 11.4073 3.08433 9.937C 2.32431 9.22391 1.78785 8.021 1.78785 6.46155C 1.78785 2.94108 4.47026 -9.69591e-07 9.61067 -9.69591e-07C 14.6612 -9.69591e-07 17.835 2.7628 17.835 6.86222L 17.835 17.3782ZM 12.5162 6.90635C 12.5162 4.99034 12.0691 2.76236 9.07463 2.76236C 7.19738 2.76236 5.45382 3.60872 5.09617 5.21319C 7.15269 5.39146 8.2699 7.17376 7.86798 8.64452C 9.83465 8.73365 11.3994 9.26847 12.5166 10.4714L 12.5166 6.90635L 12.5162 6.90635ZM 12.5162 15.8633C 12.5162 13.1896 10.773 11.9421 8.76167 11.9421C 6.92868 11.9421 5.09617 13.0113 5.09617 15.8192C 5.09617 18.8494 7.24209 19.9631 8.89581 19.9631C 10.8173 19.9627 12.5162 18.4924 12.5162 15.8633Z"/>
<path id="path13_fill" d="M 14.7068 0.57895L 14.7068 7.3966L 12.6503 7.3966L 12.6503 6.95091C 12.6503 5.12405 10.9072 2.62866 8.31416 2.62866C 6.66044 2.62866 5.49852 3.78699 5.49852 5.12405C 5.49852 5.97041 5.98984 6.90635 7.15222 7.61944L 12.3374 10.7388C 15.1535 12.432 16.226 14.7936 16.226 17.2445C 16.226 20.2301 14.5276 23.4386 9.25302 23.4386C 6.70516 23.4386 5.40865 22.7696 4.24627 22.369C 3.71022 22.1907 3.30787 22.102 2.95022 22.102C 2.14549 22.102 1.87724 22.5918 1.87724 22.8596L 6.2679e-06 22.8596L 6.2679e-06 15.2843L 2.01138 15.2843L 2.01138 15.9529C 2.01138 18.0917 4.3357 20.8099 7.8224 20.8099C 10.0573 20.8099 11.1303 19.3842 11.1303 17.9139C 11.1303 16.7997 10.5491 15.6855 9.47656 15.0174L 5.31924 12.4328C 1.9671 10.3386 0.93884 8.37799 0.93884 5.97129C 0.93884 1.33706 4.6938 -9.69592e-07 6.884 -9.69592e-07C 9.52127 -9.69592e-07 10.9072 1.24792 12.0244 1.24792C 12.5609 1.24792 12.7844 1.02508 12.8287 0.579391L 14.7068 0.579391L 14.7068 0.57895Z"/>
</defs>
</svg>
